<?xml version="1.0" encoding="UTF-8" standalone="no"?>
<!-- Generator: Adobe Illustrator 18.0.0, SVG Export Plug-In . SVG Version: 6.00 Build 0)  -->

<svg
   xmlns:dc="http://purl.org/dc/elements/1.1/"
   xmlns:cc="http://creativecommons.org/ns#"
   xmlns:rdf="http://www.w3.org/1999/02/22-rdf-syntax-ns#"
   xmlns:svg="http://www.w3.org/2000/svg"
   xmlns="http://www.w3.org/2000/svg"
   xmlns:sodipodi="http://sodipodi.sourceforge.net/DTD/sodipodi-0.dtd"
   xmlns:inkscape="http://www.inkscape.org/namespaces/inkscape"
   version="1.1"
   id="Capa_1"
   x="0px"
   y="0px"
   viewBox="0 0 81.919997 64"
   xml:space="preserve"
   inkscape:version="0.91 r13725"
   sodipodi:docname="books_ink.svg"
   width="81.919998"
   height="64"><metadata
     id="metadata3712"><rdf:RDF><cc:Work
         rdf:about=""><dc:format>image/svg+xml</dc:format><dc:type
           rdf:resource="http://purl.org/dc/dcmitype/StillImage" /><dc:title></dc:title></cc:Work></rdf:RDF></metadata><defs
     id="defs3710" /><sodipodi:namedview
     pagecolor="#ffffff"
     bordercolor="#666666"
     borderopacity="1"
     objecttolerance="10"
     gridtolerance="10"
     guidetolerance="10"
     inkscape:pageopacity="0"
     inkscape:pageshadow="2"
     inkscape:window-width="1058"
     inkscape:window-height="687"
     id="namedview3708"
     showgrid="false"
     fit-margin-top="0"
     fit-margin-left="0"
     fit-margin-right="0"
     fit-margin-bottom="0"
     inkscape:zoom="6.6650391"
     inkscape:cx="40.96"
     inkscape:cy="32"
     inkscape:window-x="564"
     inkscape:window-y="164"
     inkscape:window-maximized="0"
     inkscape:current-layer="Capa_1" /><g
     id="g3612"
     transform="matrix(0.16,0,0,0.16,0,-8.96)"><path
       style="fill:#af6328"
       d="m 0,440 0,-32 c 0,-8.837 7.163,-16 16,-16 l 480,0 c 8.837,0 16,7.163 16,16 l 0,32 c 0,8.837 -7.163,16 -16,16 L 16,456 C 7.163,456 0,448.837 0,440 Z"
       id="path3614"
       inkscape:connector-curvature="0" /><path
       style="fill:#a25425"
       d="m 496,424 0,8 c 0,4.418 -3.582,8 -8,8 l -456,0 c -8.837,0 -16,7.163 -16,16 l 0,0 232,0 144,0 104,0 c 8.837,0 16,-7.163 16,-16 l 0,-32 0,0 c -8.837,0 -16,7.163 -16,16 z"
       id="path3616"
       inkscape:connector-curvature="0" /><path
       style="fill:#3cb44a"
       d="m 160,392 -96,0 0,-248 c 0,-4.418 3.582,-8 8,-8 l 80,0 c 4.418,0 8,3.582 8,8 l 0,248 z"
       id="path3618"
       inkscape:connector-curvature="0" /><path
       style="fill:#4c9bd5"
       d="m 448,392 -96,0 0,-248 c 0,-4.418 3.582,-8 8,-8 l 80,0 c 4.418,0 8,3.582 8,8 l 0,248 z"
       id="path3620"
       inkscape:connector-curvature="0" /><path
       style="fill:#ed2c39"
       d="m 256,392 -96,0 0,-328 c 0,-4.418 3.582,-8 8,-8 l 80,0 c 4.418,0 8,3.582 8,8 l 0,328 z"
       id="path3622"
       inkscape:connector-curvature="0" /><path
       style="fill:#ffcf68"
       d="m 352,392 -96,0 0,-296 c 0,-4.418 3.582,-8 8,-8 l 80,0 c 4.418,0 8,3.582 8,8 l 0,296 z"
       id="path3624"
       inkscape:connector-curvature="0" /><path
       style="fill:#cb202c"
       d="m 176,376 56,0 c 4.418,0 8,-3.582 8,-8 l 0,-288 c 0,-8.837 7.163,-16 16,-16 l 0,0 0,64 0,144 0,120 -96,0 0,0 c 0,-8.837 7.163,-16 16,-16 z"
       id="path3626"
       inkscape:connector-curvature="0" /><path
       style="fill:#f5b445"
       d="m 272,376 56,0 c 4.418,0 8,-3.582 8,-8 l 0,-256 c 0,-8.837 7.163,-16 16,-16 l 0,0 0,64 0,112 0,120 -96,0 0,0 c 0,-8.837 7.163,-16 16,-16 z"
       id="path3628"
       inkscape:connector-curvature="0" /><path
       style="fill:#3688c8"
       d="m 368,376 56,0 c 4.418,0 8,-3.582 8,-8 l 0,-208 c 0,-8.837 7.163,-16 16,-16 l 0,0 0,64 0,64 0,120 -96,0 0,0 c 0,-8.837 7.163,-16 16,-16 z"
       id="path3630"
       inkscape:connector-curvature="0" /><path
       style="fill:#0e9247"
       d="m 80,376 56,0 c 4.418,0 8,-3.582 8,-8 l 0,-208 c 0,-8.837 7.163,-16 16,-16 l 0,0 0,64 0,64 0,120 -96,0 0,0 c 0,-8.837 7.163,-16 16,-16 z"
       id="path3632"
       inkscape:connector-curvature="0" /><rect
       x="160"
       y="104"
       style="fill:#b52025"
       width="96"
       height="8"
       id="rect3634" /><rect
       x="160"
       y="120"
       style="fill:#b52025"
       width="96"
       height="8"
       id="rect3636" /><rect
       x="64"
       y="168"
       style="fill:#04803d"
       width="96"
       height="8"
       id="rect3638" /><rect
       x="64"
       y="184"
       style="fill:#04803d"
       width="96"
       height="8"
       id="rect3640" /><rect
       x="64"
       y="336"
       style="fill:#04803d"
       width="96"
       height="8"
       id="rect3642" /><rect
       x="64"
       y="352"
       style="fill:#04803d"
       width="96"
       height="8"
       id="rect3644" /><rect
       x="352"
       y="168"
       style="fill:#0261a4"
       width="96"
       height="8"
       id="rect3646" /><rect
       x="352"
       y="184"
       style="fill:#0261a4"
       width="96"
       height="8"
       id="rect3648" /><rect
       x="352"
       y="336"
       style="fill:#0261a4"
       width="96"
       height="8"
       id="rect3650" /><rect
       x="352"
       y="352"
       style="fill:#0261a4"
       width="96"
       height="8"
       id="rect3652" /><rect
       x="256"
       y="120"
       style="fill:#f09820"
       width="96"
       height="8"
       id="rect3654" /><rect
       x="256"
       y="136"
       style="fill:#f09820"
       width="96"
       height="8"
       id="rect3656" /><rect
       x="256"
       y="336"
       style="fill:#f09820"
       width="96"
       height="8"
       id="rect3658" /><rect
       x="256"
       y="352"
       style="fill:#f09820"
       width="96"
       height="8"
       id="rect3660" /><rect
       x="160"
       y="328"
       style="fill:#b52025"
       width="96"
       height="8"
       id="rect3662" /><rect
       x="160"
       y="344"
       style="fill:#b52025"
       width="96"
       height="8"
       id="rect3664" /><path
       style="fill:#e2e4e6"
       d="m 215,288 -14,0 c -0.552,0 -1,-0.448 -1,-1 l 0,-126 c 0,-0.552 0.448,-1 1,-1 l 14,0 c 0.552,0 1,0.448 1,1 l 0,126 c 0,0.552 -0.448,1 -1,1 z"
       id="path3666"
       inkscape:connector-curvature="0" /><path
       style="fill:#f09820"
       d="m 311,280 -14,0 c -0.552,0 -1,-0.448 -1,-1 l 0,-86 c 0,-0.552 0.448,-1 1,-1 l 14,0 c 0.552,0 1,0.448 1,1 l 0,86 c 0,0.552 -0.448,1 -1,1 z"
       id="path3668"
       inkscape:connector-curvature="0" /><path
       style="fill:#e2e4e6"
       d="m 119,304 -14,0 c -0.552,0 -1,-0.448 -1,-1 l 0,-54 c 0,-0.552 0.448,-1 1,-1 l 14,0 c 0.552,0 1,0.448 1,1 l 0,54 c 0,0.552 -0.448,1 -1,1 z"
       id="path3670"
       inkscape:connector-curvature="0" /><path
       style="fill:#0261a4"
       d="m 407,312 -14,0 c -0.552,0 -1,-0.448 -1,-1 l 0,-54 c 0,-0.552 0.448,-1 1,-1 l 14,0 c 0.552,0 1,0.448 1,1 l 0,54 c 0,0.552 -0.448,1 -1,1 z"
       id="path3672"
       inkscape:connector-curvature="0" /><path
       style="fill:#e2e4e6"
       d="m 119,240 -14,0 c -0.552,0 -1,-0.448 -1,-1 l 0,-22 c 0,-0.552 0.448,-1 1,-1 l 14,0 c 0.552,0 1,0.448 1,1 l 0,22 c 0,0.552 -0.448,1 -1,1 z"
       id="path3674"
       inkscape:connector-curvature="0" /><circle
       style="fill:#0261a4"
       cx="400"
       cy="240"
       r="8"
       id="circle3676" /></g><g
     id="g3678"
     transform="matrix(0.16,0,0,0.16,0,-8.96)" /><g
     id="g3680"
     transform="matrix(0.16,0,0,0.16,0,-8.96)" /><g
     id="g3682"
     transform="matrix(0.16,0,0,0.16,0,-8.96)" /><g
     id="g3684"
     transform="matrix(0.16,0,0,0.16,0,-8.96)" /><g
     id="g3686"
     transform="matrix(0.16,0,0,0.16,0,-8.96)" /><g
     id="g3688"
     transform="matrix(0.16,0,0,0.16,0,-8.96)" /><g
     id="g3690"
     transform="matrix(0.16,0,0,0.16,0,-8.96)" /><g
     id="g3692"
     transform="matrix(0.16,0,0,0.16,0,-8.96)" /><g
     id="g3694"
     transform="matrix(0.16,0,0,0.16,0,-8.96)" /><g
     id="g3696"
     transform="matrix(0.16,0,0,0.16,0,-8.96)" /><g
     id="g3698"
     transform="matrix(0.16,0,0,0.16,0,-8.96)" /><g
     id="g3700"
     transform="matrix(0.16,0,0,0.16,0,-8.96)" /><g
     id="g3702"
     transform="matrix(0.16,0,0,0.16,0,-8.96)" /><g
     id="g3704"
     transform="matrix(0.16,0,0,0.16,0,-8.96)" /><g
     id="g3706"
     transform="matrix(0.16,0,0,0.16,0,-8.96)" /></svg>