<?xml version="1.0" encoding="UTF-8" standalone="no"?>
<!-- Generator: Adobe Illustrator 18.0.0, SVG Export Plug-In . SVG Version: 6.00 Build 0)  -->

<svg
   xmlns:dc="http://purl.org/dc/elements/1.1/"
   xmlns:cc="http://creativecommons.org/ns#"
   xmlns:rdf="http://www.w3.org/1999/02/22-rdf-syntax-ns#"
   xmlns:svg="http://www.w3.org/2000/svg"
   xmlns="http://www.w3.org/2000/svg"
   xmlns:sodipodi="http://sodipodi.sourceforge.net/DTD/sodipodi-0.dtd"
   xmlns:inkscape="http://www.inkscape.org/namespaces/inkscape"
   version="1.1"
   id="Capa_1"
   x="0px"
   y="0px"
   viewBox="0 0 34.758621 48"
   xml:space="preserve"
   inkscape:version="0.91 r13725"
   sodipodi:docname="bookshelf_ink.svg"
   width="34.758621"
   height="48"><metadata
     id="metadata83"><rdf:RDF><cc:Work
         rdf:about=""><dc:format>image/svg+xml</dc:format><dc:type
           rdf:resource="http://purl.org/dc/dcmitype/StillImage" /><dc:title></dc:title></cc:Work></rdf:RDF></metadata><defs
     id="defs81" /><sodipodi:namedview
     pagecolor="#ffffff"
     bordercolor="#666666"
     borderopacity="1"
     objecttolerance="10"
     gridtolerance="10"
     guidetolerance="10"
     inkscape:pageopacity="0"
     inkscape:pageshadow="2"
     inkscape:window-width="962"
     inkscape:window-height="601"
     id="namedview79"
     showgrid="false"
     inkscape:zoom="7.4703664"
     inkscape:cx="17.379311"
     inkscape:cy="24.000001"
     inkscape:window-x="402"
     inkscape:window-y="210"
     inkscape:window-maximized="0"
     inkscape:current-layer="Capa_1"
     fit-margin-top="0"
     fit-margin-left="0"
     fit-margin-right="0"
     fit-margin-bottom="0" /><rect
     x="0.82758623"
     y="0.82758623"
     style="fill:#553323;stroke:#774836;stroke-width:1.65517247;stroke-linejoin:round;stroke-miterlimit:10"
     width="33.103447"
     height="44.689655"
     id="rect3" /><rect
     x="2.4827585"
     y="45.517242"
     style="fill:#382016"
     width="5.7931032"
     height="2.4827585"
     id="rect5" /><rect
     x="26.482758"
     y="45.517242"
     style="fill:#382016"
     width="5.7931032"
     height="2.4827585"
     id="rect7" /><rect
     x="0.82758623"
     y="29.793102"
     style="fill:#875a48;stroke:#774836;stroke-width:1.65517247;stroke-linejoin:round;stroke-miterlimit:10"
     width="16.551723"
     height="15.724138"
     id="rect9" /><rect
     x="17.379311"
     y="29.793102"
     style="fill:#875a48;stroke:#774836;stroke-width:1.65517247;stroke-linejoin:round;stroke-miterlimit:10"
     width="16.551723"
     height="15.724138"
     id="rect11" /><rect
     x="0.82758623"
     y="10.75862"
     style="fill:#553323;stroke:#774836;stroke-width:1.65517247;stroke-linejoin:round;stroke-miterlimit:10"
     width="33.103447"
     height="9.9310341"
     id="rect13" /><path
     style="fill:#f0d64e"
     d="m 21.517242,37.241379 c -0.456828,0 -0.827586,-0.369931 -0.827586,-0.827586 l 0,-2.482759 c 0,-0.457655 0.370758,-0.827586 0.827586,-0.827586 0.456828,0 0.827586,0.369931 0.827586,0.827586 l 0,2.482759 c 0,0.457655 -0.370758,0.827586 -0.827586,0.827586 z"
     id="path15"
     inkscape:connector-curvature="0" /><path
     style="fill:#f0d64e"
     d="m 13.24138,37.241379 c -0.456828,0 -0.827586,-0.369931 -0.827586,-0.827586 l 0,-2.482759 c 0,-0.457655 0.370758,-0.827586 0.827586,-0.827586 0.456828,0 0.827586,0.369931 0.827586,0.827586 l 0,2.482759 c 0,0.457655 -0.370758,0.827586 -0.827586,0.827586 z"
     id="path17"
     inkscape:connector-curvature="0" /><rect
     x="28.965519"
     y="2.4827585"
     style="fill:#61b872"
     width="2.4827585"
     height="7.448276"
     id="rect19" /><rect
     x="26.482758"
     y="2.4827585"
     style="fill:#3d6f44"
     width="2.4827585"
     height="7.448276"
     id="rect21" /><rect
     x="24"
     y="2.4827585"
     style="fill:#26b99a"
     width="2.4827585"
     height="7.448276"
     id="rect23" /><rect
     x="21.517242"
     y="2.4827585"
     style="fill:#1a9172"
     width="2.4827585"
     height="7.448276"
     id="rect25" /><rect
     x="30.620689"
     y="12.413794"
     style="fill:#ed8a19"
     width="2.4827585"
     height="7.448276"
     id="rect27" /><rect
     x="28.137932"
     y="12.413794"
     style="fill:#ebba16"
     width="2.4827585"
     height="7.448276"
     id="rect29" /><rect
     x="25.655174"
     y="12.413794"
     style="fill:#efce4a"
     width="2.4827585"
     height="7.448276"
     id="rect31" /><rect
     x="23.172413"
     y="12.413794"
     style="fill:#88c057"
     width="2.4827585"
     height="7.448276"
     id="rect33" /><rect
     x="20.689655"
     y="12.413794"
     style="fill:#a4d873"
     width="2.4827585"
     height="7.448276"
     id="rect35" /><rect
     x="18.206898"
     y="12.413794"
     style="fill:#f2ecbf"
     width="2.4827585"
     height="7.448276"
     id="rect37" /><rect
     x="4.1379309"
     y="17.379311"
     style="fill:#b02721"
     width="7.448276"
     height="2.4827585"
     id="rect39" /><rect
     x="4.1379309"
     y="14.896551"
     style="fill:#dd352e"
     width="7.448276"
     height="2.4827585"
     id="rect41" /><rect
     x="24"
     y="26.482759"
     style="fill:#75348b"
     width="7.448276"
     height="2.4827585"
     id="rect43" /><rect
     x="24"
     y="24"
     style="fill:#814494"
     width="7.448276"
     height="2.4827585"
     id="rect45" /><polygon
     style="fill:#88c057"
     points="31,12 28,12 31,4 34,4 "
     id="polygon47"
     transform="matrix(0.82758621,0,0,0.82758621,-6.6206893,5.9604645e-8)" /><g
     id="g49"
     transform="matrix(0.82758621,0,0,0.82758621,-6.6206893,5.9604645e-8)" /><g
     id="g51"
     transform="matrix(0.82758621,0,0,0.82758621,-6.6206893,5.9604645e-8)" /><g
     id="g53"
     transform="matrix(0.82758621,0,0,0.82758621,-6.6206893,5.9604645e-8)" /><g
     id="g55"
     transform="matrix(0.82758621,0,0,0.82758621,-6.6206893,5.9604645e-8)" /><g
     id="g57"
     transform="matrix(0.82758621,0,0,0.82758621,-6.6206893,5.9604645e-8)" /><g
     id="g59"
     transform="matrix(0.82758621,0,0,0.82758621,-6.6206893,5.9604645e-8)" /><g
     id="g61"
     transform="matrix(0.82758621,0,0,0.82758621,-6.6206893,5.9604645e-8)" /><g
     id="g63"
     transform="matrix(0.82758621,0,0,0.82758621,-6.6206893,5.9604645e-8)" /><g
     id="g65"
     transform="matrix(0.82758621,0,0,0.82758621,-6.6206893,5.9604645e-8)" /><g
     id="g67"
     transform="matrix(0.82758621,0,0,0.82758621,-6.6206893,5.9604645e-8)" /><g
     id="g69"
     transform="matrix(0.82758621,0,0,0.82758621,-6.6206893,5.9604645e-8)" /><g
     id="g71"
     transform="matrix(0.82758621,0,0,0.82758621,-6.6206893,5.9604645e-8)" /><g
     id="g73"
     transform="matrix(0.82758621,0,0,0.82758621,-6.6206893,5.9604645e-8)" /><g
     id="g75"
     transform="matrix(0.82758621,0,0,0.82758621,-6.6206893,5.9604645e-8)" /><g
     id="g77"
     transform="matrix(0.82758621,0,0,0.82758621,-6.6206893,5.9604645e-8)" /></svg>