<?xml version="1.0" encoding="UTF-8" standalone="no"?>
<!-- Generator: Adobe Illustrator 16.0.0, SVG Export Plug-In . SVG Version: 6.00 Build 0)  -->

<svg
   xmlns:dc="http://purl.org/dc/elements/1.1/"
   xmlns:cc="http://creativecommons.org/ns#"
   xmlns:rdf="http://www.w3.org/1999/02/22-rdf-syntax-ns#"
   xmlns:svg="http://www.w3.org/2000/svg"
   xmlns="http://www.w3.org/2000/svg"
   xmlns:sodipodi="http://sodipodi.sourceforge.net/DTD/sodipodi-0.dtd"
   xmlns:inkscape="http://www.inkscape.org/namespaces/inkscape"
   version="1.1"
   id="Capa_1"
   x="0px"
   y="0px"
   width="66.145325"
   height="64"
   viewBox="0 0 66.14532 63.999997"
   xml:space="preserve"
   inkscape:version="0.91 r13725"
   sodipodi:docname="language.svg"><metadata
     id="metadata3609"><rdf:RDF><cc:Work
         rdf:about=""><dc:format>image/svg+xml</dc:format><dc:type
           rdf:resource="http://purl.org/dc/dcmitype/StillImage" /><dc:title></dc:title></cc:Work></rdf:RDF></metadata><defs
     id="defs3607" /><sodipodi:namedview
     pagecolor="#ffffff"
     bordercolor="#666666"
     borderopacity="1"
     objecttolerance="10"
     gridtolerance="10"
     guidetolerance="10"
     inkscape:pageopacity="0"
     inkscape:pageshadow="2"
     inkscape:window-width="1596"
     inkscape:window-height="872"
     id="namedview3605"
     showgrid="false"
     units="px"
     showborder="true"
     fit-margin-top="0"
     fit-margin-left="0"
     fit-margin-right="0"
     fit-margin-bottom="0"
     inkscape:zoom="11.484375"
     inkscape:cx="33.072664"
     inkscape:cy="32"
     inkscape:window-x="2091"
     inkscape:window-y="92"
     inkscape:window-maximized="0"
     inkscape:current-layer="g3555" /><g
     id="g3553"
     transform="matrix(0.36443149,0,0,0.36443149,20.670417,19.597664)"><g
       id="g3555"><g
         id="g3366"
         transform="matrix(2.6666663,0,0,2.6666663,-56.719582,-56.719988)"><path
           d="m 6.032,21.936 8.96,0 2.688,7.84 3.584,0 -8.511,-25.312 -4.033,0 -8.512,25.312 3.36,0 2.464,-7.84 z M 9.169,12.08 c 0.447,-1.567 0.896,-3.137 1.344,-4.479 l 0,0 c 0.448,1.567 0.672,2.912 1.344,4.704 l 2.464,7.168 -7.617,0 2.465,-7.393 z"
           id="path3559"
           inkscape:connector-curvature="0" /><path
           d="m 49.04,16.336 c 0,0 19.714,-2.24 14.111,17.022 C 79.727,7.599 49.04,5.807 49.04,5.807 l 0,-4.703 -15.68,10.08 15.68,10.08 0,-4.928 z"
           id="path3571"
           inkscape:connector-curvature="0" /><path
           d="m 19.024,51.727 c 0,0 -19.712,2.24 -14.112,-17.023 -16.575,25.76 14.112,27.553 14.112,27.553 l 0,4.703 15.68,-10.08 -15.68,-10.08 0,4.927 z"
           id="path3573"
           inkscape:connector-curvature="0" /><text
           transform="scale(0.94814186,1.0546945)"
           sodipodi:linespacing="125%"
           id="text3360"
           y="59.760918"
           x="37.116459"
           style="font-style:normal;font-variant:normal;font-weight:normal;font-stretch:normal;font-size:33.07411194px;line-height:125%;font-family:'FKKaikaisho AriakeStd W4';-inkscape-font-specification:'FKKaikaisho AriakeStd W4, Normal';text-align:start;letter-spacing:0px;word-spacing:0px;writing-mode:lr-tb;text-anchor:start;fill:#000000;fill-opacity:1;stroke:none;stroke-width:1px;stroke-linecap:butt;stroke-linejoin:miter;stroke-opacity:1"
           xml:space="preserve"><tspan
             y="59.760918"
             x="37.116459"
             id="tspan3364"
             sodipodi:role="line">中</tspan></text>
</g></g></g><g
     id="g3575"
     transform="matrix(0.36443149,0,0,0.36443149,20.670417,19.597664)" /><g
     id="g3577"
     transform="matrix(0.36443149,0,0,0.36443149,20.670417,19.597664)" /><g
     id="g3579"
     transform="matrix(0.36443149,0,0,0.36443149,20.670417,19.597664)" /><g
     id="g3581"
     transform="matrix(0.36443149,0,0,0.36443149,20.670417,19.597664)" /><g
     id="g3583"
     transform="matrix(0.36443149,0,0,0.36443149,20.670417,19.597664)" /><g
     id="g3585"
     transform="matrix(0.36443149,0,0,0.36443149,20.670417,19.597664)" /><g
     id="g3587"
     transform="matrix(0.36443149,0,0,0.36443149,20.670417,19.597664)" /><g
     id="g3589"
     transform="matrix(0.36443149,0,0,0.36443149,20.670417,19.597664)" /><g
     id="g3591"
     transform="matrix(0.36443149,0,0,0.36443149,20.670417,19.597664)" /><g
     id="g3593"
     transform="matrix(0.36443149,0,0,0.36443149,20.670417,19.597664)" /><g
     id="g3595"
     transform="matrix(0.36443149,0,0,0.36443149,20.670417,19.597664)" /><g
     id="g3597"
     transform="matrix(0.36443149,0,0,0.36443149,20.670417,19.597664)" /><g
     id="g3599"
     transform="matrix(0.36443149,0,0,0.36443149,20.670417,19.597664)" /><g
     id="g3601"
     transform="matrix(0.36443149,0,0,0.36443149,20.670417,19.597664)" /><g
     id="g3603"
     transform="matrix(0.36443149,0,0,0.36443149,20.670417,19.597664)" /></svg>