<?xml version="1.0" encoding="UTF-8" standalone="no"?>
<!-- Generator: Adobe Illustrator 19.0.0, SVG Export Plug-In . SVG Version: 6.00 Build 0)  -->

<svg
   xmlns:dc="http://purl.org/dc/elements/1.1/"
   xmlns:cc="http://creativecommons.org/ns#"
   xmlns:rdf="http://www.w3.org/1999/02/22-rdf-syntax-ns#"
   xmlns:svg="http://www.w3.org/2000/svg"
   xmlns="http://www.w3.org/2000/svg"
   xmlns:sodipodi="http://sodipodi.sourceforge.net/DTD/sodipodi-0.dtd"
   xmlns:inkscape="http://www.inkscape.org/namespaces/inkscape"
   version="1.1"
   id="Layer_1"
   x="0px"
   y="0px"
   viewBox="0 0 68.000001 68.000001"
   xml:space="preserve"
   inkscape:version="0.91 r13725"
   sodipodi:docname="library_ink.svg"
   width="68"
   height="68"><metadata
     id="metadata101"><rdf:RDF><cc:Work
         rdf:about=""><dc:format>image/svg+xml</dc:format><dc:type
           rdf:resource="http://purl.org/dc/dcmitype/StillImage" /><dc:title></dc:title></cc:Work></rdf:RDF></metadata><defs
     id="defs99" /><sodipodi:namedview
     pagecolor="#ffffff"
     bordercolor="#666666"
     borderopacity="1"
     objecttolerance="10"
     gridtolerance="10"
     guidetolerance="10"
     inkscape:pageopacity="0"
     inkscape:pageshadow="2"
     inkscape:window-width="748"
     inkscape:window-height="480"
     id="namedview97"
     showgrid="false"
     fit-margin-top="0"
     fit-margin-left="0"
     fit-margin-right="0"
     fit-margin-bottom="0"
     inkscape:zoom="0.46094651"
     inkscape:cx="33.999995"
     inkscape:cy="34.000003"
     inkscape:window-x="493"
     inkscape:window-y="158"
     inkscape:window-maximized="0"
     inkscape:current-layer="Layer_1" /><rect
     x="1.9928845"
     y="1.5957745"
     style="fill:#965353"
     width="41.569794"
     height="61.756363"
     id="rect3" /><rect
     x="5.9101362"
     y="5.8431959"
     style="fill:#5d9cec"
     width="10.359445"
     height="5.1132483"
     id="rect5" /><g
     id="g7"
     transform="scale(0.13281509,0.13281509)"><rect
       x="44.499001"
       y="85.995003"
       style="fill:#ac92eb"
       width="77.999001"
       height="38.5"
       id="rect9" /><rect
       x="220.16499"
       y="159.495"
       style="fill:#ac92eb"
       width="77.999001"
       height="38.5"
       id="rect11" /></g><rect
     x="29.241236"
     y="26.761576"
     style="fill:#a0d468"
     width="10.359445"
     height="5.1132483"
     id="rect13" /><g
     id="g15"
     transform="scale(0.13281509,0.13281509)"><rect
       x="132.495"
       y="279.995"
       style="fill:#5d9cec"
       width="77.999001"
       height="38.499001"
       id="rect17" /><rect
       x="132.495"
       y="321.995"
       style="fill:#5d9cec"
       width="77.999001"
       height="38.499001"
       id="rect19" /><rect
       x="41.749001"
       y="396.495"
       style="fill:#5d9cec"
       width="77.999001"
       height="38.498001"
       id="rect21" /></g><rect
     x="5.5449018"
     y="58.238766"
     style="fill:#a0d468"
     width="10.359445"
     height="5.1133809"
     id="rect23" /><rect
     x="17.553507"
     y="6.2416487"
     style="fill:#ac92eb"
     width="5.1133809"
     height="10.359445"
     id="rect25" /><rect
     x="23.198145"
     y="6.2416487"
     style="fill:#a0d468"
     width="5.1132483"
     height="10.359445"
     id="rect27" /><rect
     x="28.70997"
     y="6.2416487"
     style="fill:#48cfad"
     width="5.1132483"
     height="10.359445"
     id="rect29" /><rect
     x="34.421017"
     y="6.2416487"
     style="fill:#ed5564"
     width="5.1133809"
     height="10.359445"
     id="rect31" /><rect
     x="5.9101362"
     y="21.515375"
     style="fill:#5d9cec"
     width="5.1132483"
     height="10.359445"
     id="rect33" /><rect
     x="11.554255"
     y="21.515375"
     style="fill:#48cfad"
     width="5.1133809"
     height="10.359445"
     id="rect35" /><rect
     x="17.06608"
     y="21.515375"
     style="fill:#ed5564"
     width="5.1133809"
     height="10.359445"
     id="rect37" /><rect
     x="22.777124"
     y="21.515375"
     style="fill:#48cfad"
     width="5.1132483"
     height="10.359445"
     id="rect39" /><rect
     x="17.719522"
     y="52.594112"
     style="fill:#a0d468"
     width="5.1133809"
     height="10.359312"
     id="rect41" /><g
     id="g43"
     transform="scale(0.13281509,0.13281509)"><rect
       x="175.91499"
       y="395.995"
       style="fill:#48cfad"
       width="38.499001"
       height="77.998001"
       id="rect45" /><rect
       x="217.41499"
       y="395.995"
       style="fill:#48cfad"
       width="38.499001"
       height="77.998001"
       id="rect47" /></g><g
     id="g49"
     transform="scale(0.13281509,0.13281509)"><rect
       x="260.41501"
       y="395.995"
       style="fill:#ed5564"
       width="38.5"
       height="77.998001"
       id="rect51" /><rect
       x="218.41499"
       y="279.495"
       style="fill:#ed5564"
       width="38.499001"
       height="77.998001"
       id="rect53" /></g><rect
     x="34.719845"
     y="37.121151"
     style="fill:#48cfad"
     width="5.1133809"
     height="10.359312"
     id="rect55" /><rect
     x="5.610774"
     y="37.121151"
     style="fill:#ac92eb"
     width="5.1132483"
     height="10.359312"
     id="rect57" /><rect
     x="11.321818"
     y="37.121151"
     style="fill:#48cfad"
     width="5.1133809"
     height="10.359312"
     id="rect59" /><g
     id="g61"
     transform="scale(0.13281509,0.13281509)"><path
       style="fill:#080808"
       d="M 330.666,0 10.672,0 C 4.781,0 0,4.781 0,10.656 l 0,469.335 c 0,5.891 4.781,10.656 10.672,10.656 l 10.672,0 0,10.688 c 0,5.875 4.765,10.655 10.656,10.655 5.891,0 10.672,-4.78 10.672,-10.655 l 0,-10.688 74.67,0 21.328,0 21.328,0 21.343,0 21.328,0 21.328,0 21.343,0 21.328,0 32,0 0,10.688 c 0,5.875 4.781,10.655 10.671,10.655 5.891,0 10.656,-4.78 10.656,-10.655 l 0,-10.688 10.672,0 c 5.89,0 10.671,-4.766 10.671,-10.656 l 0,-469.335 C 341.337,4.781 336.556,0 330.666,0 Z m -255.995,351.993 -21.328,0 0,-63.998 21.328,0 c 0,0 0,63.998 0,63.998 z m 42.671,0 -21.344,0 0,-63.998 21.343,0 0.001,63.998 0,0 z m 85.326,-42.655 -63.999,0 0,-21.343 63.999,0 0,21.343 z m -63.999,21.312 63.999,0 0,21.343 -63.999,0 0,-21.343 0,0 z m 85.327,0 0,-21.312 0,-21.343 21.343,0 0,63.998 -21.343,0 0,-21.343 z m 63.999,21.343 -21.328,0 0,-63.998 21.328,0 0,63.998 z m -21.328,-85.342 -21.328,0 -21.343,0 -21.328,0 -63.999,0 -21.328,0 -21.343,0 -21.327,0 -42.672,0 0,85.342 -10.655,0 0,-95.998 10.656,0 42.671,0 21.328,0 21.343,0 21.328,0 21.328,0 21.343,0 21.328,0 21.328,0 85.342,0 10.656,0 0,95.998 -10.656,0 0,-85.342 -42.672,0 0,0 z M 53.343,96.733 l 63.999,0 0,20.609 -63.999,0 0,-20.609 z m 85.326,-43.39 21.328,0 0,63.999 -21.328,0 0,-20.609 0,-22.078 0,-21.312 z m 149.326,63.999 -21.328,0 0,-63.999 21.328,0 0,63.999 z m -42.656,0 -21.343,0 0,-63.999 21.343,0 0,63.999 z m -42.671,0 -21.328,0 0,-63.999 21.328,0 0,63.999 z m -85.326,-42.687 -63.999,0 0,-20.594 63.999,0 0,20.594 z m 0,63.999 21.328,0 21.328,0 21.343,0 21.328,0 21.328,0 21.343,0 21.328,0 42.671,0 10.656,0 0,95.998 -10.656,0 0,-21.312 0,-21.343 0,-42.655 -85.342,0 -21.328,0 -21.328,0 -21.343,0 -21.328,0 -21.328,0 -21.344,0 -21.327,0 -42.672,0 0,85.311 -10.655,0 0,-95.998 10.656,0 85.342,-0.001 0,0 z m -42.671,95.998 -21.328,0 0,-63.999 21.328,0 c 0,0 0,63.999 0,63.999 z m 42.671,0 -21.344,0 0,-63.999 21.343,0 0.001,63.999 0,0 z m 42.655,0 -21.328,0 0,-63.999 21.328,0 0,63.999 z m 127.998,-42.656 -63.999,0 0,-21.343 63.999,0 0,21.343 z m -85.327,0 0,21.343 0,21.312 -21.328,0 0,-63.999 21.328,0 0,21.344 z m 21.328,21.344 63.999,0 0,21.312 -63.999,0 0,-21.312 z m 95.998,-191.996 0,95.998 -10.656,0 0,-84.608 -277.339,0 0,41.921 0,22.078 0,20.609 -10.655,0 0,-95.998 298.65,0 z m -266.651,447.991 0,-21.344 63.999,0 0,21.344 -63.999,0 z m 63.999,-42.687 -63.999,0 0,-21.312 63.999,0 0,21.312 z m 21.327,42.687 0,-21.344 0,-21.343 0,-21.312 21.328,0 0,63.998 -21.328,0 0,10e-4 z m 42.671,0 0,-63.998 21.328,0 0,63.998 -21.328,0 0,0 z m 42.656,0 0,-63.998 21.343,0 0,63.998 -21.343,0 0,0 z m 42.671,0 0,-63.998 21.328,0 0,63.998 -21.328,0 0,0 z m 42.671,0 0,-85.342 -42.671,0 -21.328,0 -21.343,0 -21.328,0 -21.328,0 -21.343,0 -21.328,0 -21.328,0 -85.342,0 0,42.655 0,21.343 0,21.344 -10.655,0 0,-95.998 10.656,0 42.671,0 21.328,0 21.343,0 21.328,0 63.999,0 21.328,0 21.343,0 21.328,0 42.671,0 10.656,0 0,95.998 -10.657,0 0,0 z"
       id="path63"
       inkscape:connector-curvature="0" /><path
       style="fill:#080808"
       d="m 501.335,469.335 0,-458.679 C 501.335,4.781 496.554,0 490.663,0 484.772,0 479.991,4.781 479.991,10.656 l 0,53.343 -95.998,0 0,-53.343 C 383.993,4.781 379.227,0 373.337,0 c -5.89,0 -10.672,4.781 -10.672,10.656 l 0,458.679 c -5.891,0 -10.672,4.766 -10.672,10.656 l 0,21.344 c 0,5.875 4.781,10.655 10.672,10.655 1.938,0 3.766,-0.531 5.328,-1.438 1.578,0.906 3.391,1.438 5.344,1.438 5.891,0 10.656,-4.78 10.656,-10.655 l 0,-74.687 95.998,0 0,74.687 c 0,5.875 4.781,10.655 10.672,10.655 1.938,0 3.766,-0.531 5.328,-1.438 1.578,0.906 3.391,1.438 5.344,1.438 5.891,0 10.655,-4.78 10.655,-10.655 l 0,-21.344 c 0,-5.891 -4.765,-10.656 -10.655,-10.656 z m -21.344,-234.683 -95.998,0 0,-63.999 95.998,0 0,63.999 0,0 z m -95.998,21.343 95.998,0 0,63.999 -95.998,0 0,-63.999 z m 95.998,-170.653 0,63.999 -95.998,0 0,-63.999 95.998,0 z m -95.998,319.995 0,-64 95.998,0 0,64 -95.998,0 z"
       id="path65"
       inkscape:connector-curvature="0" /></g><g
     id="g67"
     transform="scale(0.13281509,0.13281509)" /><g
     id="g69"
     transform="scale(0.13281509,0.13281509)" /><g
     id="g71"
     transform="scale(0.13281509,0.13281509)" /><g
     id="g73"
     transform="scale(0.13281509,0.13281509)" /><g
     id="g75"
     transform="scale(0.13281509,0.13281509)" /><g
     id="g77"
     transform="scale(0.13281509,0.13281509)" /><g
     id="g79"
     transform="scale(0.13281509,0.13281509)" /><g
     id="g81"
     transform="scale(0.13281509,0.13281509)" /><g
     id="g83"
     transform="scale(0.13281509,0.13281509)" /><g
     id="g85"
     transform="scale(0.13281509,0.13281509)" /><g
     id="g87"
     transform="scale(0.13281509,0.13281509)" /><g
     id="g89"
     transform="scale(0.13281509,0.13281509)" /><g
     id="g91"
     transform="scale(0.13281509,0.13281509)" /><g
     id="g93"
     transform="scale(0.13281509,0.13281509)" /><g
     id="g95"
     transform="scale(0.13281509,0.13281509)" /></svg>