<?xml version="1.0" encoding="UTF-8" standalone="no"?>
<!-- Generator: Adobe Illustrator 16.0.0, SVG Export Plug-In . SVG Version: 6.00 Build 0)  -->

<svg
   xmlns:dc="http://purl.org/dc/elements/1.1/"
   xmlns:cc="http://creativecommons.org/ns#"
   xmlns:rdf="http://www.w3.org/1999/02/22-rdf-syntax-ns#"
   xmlns:svg="http://www.w3.org/2000/svg"
   xmlns="http://www.w3.org/2000/svg"
   xmlns:sodipodi="http://sodipodi.sourceforge.net/DTD/sodipodi-0.dtd"
   xmlns:inkscape="http://www.inkscape.org/namespaces/inkscape"
   version="1.1"
   id="Capa_1"
   x="0px"
   y="0px"
   width="24.804499"
   height="24"
   viewBox="0 0 24.804497 23.999999"
   xml:space="preserve"
   inkscape:version="0.91 r13725"
   sodipodi:docname="translation-and-localization-ink.svg"><metadata
     id="metadata3609"><rdf:RDF><cc:Work
         rdf:about=""><dc:format>image/svg+xml</dc:format><dc:type
           rdf:resource="http://purl.org/dc/dcmitype/StillImage" /><dc:title></dc:title></cc:Work></rdf:RDF></metadata><defs
     id="defs3607" /><sodipodi:namedview
     pagecolor="#ffffff"
     bordercolor="#666666"
     borderopacity="1"
     objecttolerance="10"
     gridtolerance="10"
     guidetolerance="10"
     inkscape:pageopacity="0"
     inkscape:pageshadow="2"
     inkscape:window-width="748"
     inkscape:window-height="481"
     id="namedview3605"
     showgrid="false"
     units="px"
     showborder="true"
     fit-margin-top="0"
     fit-margin-left="0"
     fit-margin-right="0"
     fit-margin-bottom="0"
     inkscape:zoom="3.6811098"
     inkscape:cx="12.402026"
     inkscape:cy="9.7944993"
     inkscape:window-x="731"
     inkscape:window-y="81"
     inkscape:window-maximized="0"
     inkscape:current-layer="Capa_1" /><g
     id="g3553"
     transform="matrix(0.36443149,0,0,0.36443149,5.7143444e-6,-0.40233236)"><g
       id="g3555"><g
         id="g3557"><path
           d="m 6.032,21.936 8.96,0 2.688,7.84 3.584,0 -8.511,-25.312 -4.033,0 -8.512,25.312 3.36,0 2.464,-7.84 z M 9.169,12.08 c 0.447,-1.567 0.896,-3.137 1.344,-4.479 l 0,0 c 0.448,1.567 0.672,2.912 1.344,4.704 l 2.464,7.168 -7.617,0 2.465,-7.393 z"
           id="path3559"
           inkscape:connector-curvature="0" /><path
           d="m 47.695,50.383 c 0,-1.344 -0.896,-3.358 -2.464,-6.047 0,-0.896 0.672,-2.018 1.792,-3.139 1.119,-1.344 2.017,-2.238 2.24,-2.91 -0.448,-0.674 -1.344,-1.121 -2.465,-1.568 -0.225,0 -0.896,0.447 -2.463,1.345 -1.121,0.449 -1.793,0.896 -2.466,0.896 -0.225,0 -0.672,0 -1.118,-0.225 -0.449,-0.223 -0.896,-0.223 -1.121,-0.223 l -0.67,0 c 0.447,0.672 0.672,1.344 0.672,1.568 l 0,17.471 c 0,0.449 0,1.121 -0.225,2.018 -0.225,0.897 -0.225,1.566 -0.225,2.016 0,1.121 0.447,1.793 1.119,2.24 L 41.197,63.6 c 0.226,0 0.226,-0.895 0.447,-2.688 0,-1.791 0,-4.703 0,-8.513 0,-1.346 0,-3.358 0,-6.271 0,-2.913 0,-4.928 0,-6.271 2.239,-0.672 3.809,-1.121 4.929,-1.568 l 0.225,0.226 0,0.226 c -0.447,0.895 -0.672,1.791 -1.119,2.465 -0.672,1.344 -0.896,2.016 -0.896,2.463 0,0.225 0.226,0.896 0.672,2.018 0.447,1.344 0.673,2.016 0.896,2.24 l -0.225,0.447 c -1.345,-0.228 -2.688,-0.447 -4.031,-0.674 0.672,0.227 1.566,0.896 2.688,1.793 1.122,0.896 2.017,1.565 2.464,1.791 0.224,0.22 0.448,-0.229 0.448,-0.901 z"
           id="path3561"
           inkscape:connector-curvature="0" /><path
           d="m 64.271,46.127 c 1.568,0 2.688,-0.225 3.137,-0.446 0,-0.449 -0.447,-0.896 -1.12,-1.345 -0.672,-0.448 -1.118,-0.448 -1.792,-0.448 -1.12,0 -2.688,0.225 -4.479,0.672 -2.24,0.448 -3.81,0.672 -4.256,0.896 -3.584,0.447 -6.272,0.672 -8.064,0.896 0.673,1.118 1.345,1.791 2.24,1.791 0.672,0 1.568,0 2.912,-0.224 0.896,-0.225 1.791,-0.225 2.912,-0.449 0.446,0.449 0.672,0.896 0.672,1.794 l 0,11.647 -0.226,0.223 -0.446,-0.223 c -1.793,-0.449 -3.138,-0.674 -4.033,-0.896 0.673,0.446 1.346,1.344 2.24,2.463 0.896,1.121 1.567,2.019 2.017,2.465 1.567,-0.896 2.465,-2.688 2.465,-5.601 0,-4.479 0,-6.495 0,-6.272 0,-2.463 -0.226,-4.479 -0.673,-6.271 2.911,-0.447 4.927,-0.672 6.494,-0.672 z"
           id="path3563"
           inkscape:connector-curvature="0" /><path
           d="m 64.943,53.52 c -1.567,-0.672 -3.137,-1.121 -4.703,-1.121 0.672,0.672 2.018,1.568 3.359,3.137 1.344,1.344 2.688,2.465 3.358,3.137 0.673,0 0.896,-0.672 0.896,-1.793 0.002,-1.344 -0.892,-2.463 -2.91,-3.36 z"
           id="path3565"
           inkscape:connector-curvature="0" /><path
           d="m 60.688,37.616 c -0.447,0 -1.12,0.225 -2.239,0.447 -1.567,0.449 -2.24,0.672 -2.24,0.672 -1.118,0.225 -2.688,0.449 -4.702,0.672 0,0.896 0.896,1.346 2.463,1.346 0.896,0 2.465,-0.225 4.705,-0.448 2.463,-0.447 3.808,-0.673 4.03,-1.119 0,-0.447 -0.225,-0.672 -0.896,-1.119 -0.225,-0.451 -0.673,-0.451 -1.121,-0.451 z"
           id="path3567"
           inkscape:connector-curvature="0" /><path
           d="m 50.607,51.727 c 0,0 -0.225,0.449 -0.672,1.344 -0.225,0.896 -0.448,1.346 -0.672,1.568 -0.448,0.449 -0.896,1.121 -1.568,1.793 -0.672,0.896 -0.896,1.344 -0.896,1.791 0,0.225 0,0.449 0.225,0.672 0.225,0.225 0.447,0.225 0.672,0.225 0.673,0 1.568,-0.447 2.24,-1.568 0.672,-0.895 0.896,-2.016 0.896,-3.135 0.447,-1.793 0.223,-2.69 -0.225,-2.69 z"
           id="path3569"
           inkscape:connector-curvature="0" /><path
           d="m 49.04,16.336 c 0,0 19.714,-2.24 14.111,17.022 C 79.727,7.599 49.04,5.807 49.04,5.807 l 0,-4.703 -15.68,10.08 15.68,10.08 0,-4.928 z"
           id="path3571"
           inkscape:connector-curvature="0" /><path
           d="m 19.024,51.727 c 0,0 -19.712,2.24 -14.112,-17.023 -16.575,25.76 14.112,27.553 14.112,27.553 l 0,4.703 15.68,-10.08 -15.68,-10.08 0,4.927 z"
           id="path3573"
           inkscape:connector-curvature="0" /></g></g></g><g
     id="g3575"
     transform="matrix(0.36443149,0,0,0.36443149,5.7143444e-6,-0.40233236)" /><g
     id="g3577"
     transform="matrix(0.36443149,0,0,0.36443149,5.7143444e-6,-0.40233236)" /><g
     id="g3579"
     transform="matrix(0.36443149,0,0,0.36443149,5.7143444e-6,-0.40233236)" /><g
     id="g3581"
     transform="matrix(0.36443149,0,0,0.36443149,5.7143444e-6,-0.40233236)" /><g
     id="g3583"
     transform="matrix(0.36443149,0,0,0.36443149,5.7143444e-6,-0.40233236)" /><g
     id="g3585"
     transform="matrix(0.36443149,0,0,0.36443149,5.7143444e-6,-0.40233236)" /><g
     id="g3587"
     transform="matrix(0.36443149,0,0,0.36443149,5.7143444e-6,-0.40233236)" /><g
     id="g3589"
     transform="matrix(0.36443149,0,0,0.36443149,5.7143444e-6,-0.40233236)" /><g
     id="g3591"
     transform="matrix(0.36443149,0,0,0.36443149,5.7143444e-6,-0.40233236)" /><g
     id="g3593"
     transform="matrix(0.36443149,0,0,0.36443149,5.7143444e-6,-0.40233236)" /><g
     id="g3595"
     transform="matrix(0.36443149,0,0,0.36443149,5.7143444e-6,-0.40233236)" /><g
     id="g3597"
     transform="matrix(0.36443149,0,0,0.36443149,5.7143444e-6,-0.40233236)" /><g
     id="g3599"
     transform="matrix(0.36443149,0,0,0.36443149,5.7143444e-6,-0.40233236)" /><g
     id="g3601"
     transform="matrix(0.36443149,0,0,0.36443149,5.7143444e-6,-0.40233236)" /><g
     id="g3603"
     transform="matrix(0.36443149,0,0,0.36443149,5.7143444e-6,-0.40233236)" /></svg>