<?xml version="1.0" encoding="iso-8859-1"?>
<!-- Generator: Adobe Illustrator 19.0.0, SVG Export Plug-In . SVG Version: 6.00 Build 0)  -->
<svg version="1.1" id="Layer_1" xmlns="http://www.w3.org/2000/svg" xmlns:xlink="http://www.w3.org/1999/xlink" x="0px" y="0px"
	 viewBox="0 0 511.99 511.99" style="enable-background:new 0 0 511.99 511.99;" xml:space="preserve">
<rect x="15.005" y="12.015" style="fill:#965353;" width="312.99" height="464.98"/>
<rect x="44.499" y="43.995" style="fill:#5D9CEC;" width="77.999" height="38.499"/>
<g>
	<rect x="44.499" y="85.995" style="fill:#AC92EB;" width="77.999" height="38.5"/>
	<rect x="220.165" y="159.495" style="fill:#AC92EB;" width="77.999" height="38.5"/>
</g>
<rect x="220.165" y="201.495" style="fill:#A0D468;" width="77.999" height="38.499"/>
<g>
	<rect x="132.495" y="279.995" style="fill:#5D9CEC;" width="77.999" height="38.499"/>
	<rect x="132.495" y="321.995" style="fill:#5D9CEC;" width="77.999" height="38.499"/>
	<rect x="41.749" y="396.495" style="fill:#5D9CEC;" width="77.999" height="38.498"/>
</g>
<rect x="41.749" y="438.495" style="fill:#A0D468;" width="77.999" height="38.5"/>
<rect x="132.165" y="46.995" style="fill:#AC92EB;" width="38.5" height="77.999"/>
<rect x="174.665" y="46.995" style="fill:#A0D468;" width="38.499" height="77.999"/>
<rect x="216.165" y="46.995" style="fill:#48CFAD;" width="38.499" height="77.999"/>
<rect x="259.165" y="46.995" style="fill:#ED5564;" width="38.5" height="77.999"/>
<rect x="44.499" y="161.995" style="fill:#5D9CEC;" width="38.499" height="77.999"/>
<rect x="86.995" y="161.995" style="fill:#48CFAD;" width="38.5" height="77.999"/>
<rect x="128.495" y="161.995" style="fill:#ED5564;" width="38.5" height="77.999"/>
<rect x="171.495" y="161.995" style="fill:#48CFAD;" width="38.499" height="77.999"/>
<rect x="133.415" y="395.995" style="fill:#A0D468;" width="38.5" height="77.998"/>
<g>
	<rect x="175.915" y="395.995" style="fill:#48CFAD;" width="38.499" height="77.998"/>
	<rect x="217.415" y="395.995" style="fill:#48CFAD;" width="38.499" height="77.998"/>
</g>
<g>
	<rect x="260.415" y="395.995" style="fill:#ED5564;" width="38.5" height="77.998"/>
	<rect x="218.415" y="279.495" style="fill:#ED5564;" width="38.499" height="77.998"/>
</g>
<rect x="261.415" y="279.495" style="fill:#48CFAD;" width="38.5" height="77.998"/>
<rect x="42.245" y="279.495" style="fill:#AC92EB;" width="38.499" height="77.998"/>
<rect x="85.245" y="279.495" style="fill:#48CFAD;" width="38.5" height="77.998"/>
<g>
	<path style="fill:#080808;" d="M330.666,0H10.672C4.781,0,0,4.781,0,10.656v469.335c0,5.891,4.781,10.656,10.672,10.656h10.672
		v10.688c0,5.875,4.765,10.655,10.656,10.655s10.672-4.78,10.672-10.655v-10.688h74.67h21.328h21.328h21.343h21.328h21.328h21.343
		h21.328h32v10.688c0,5.875,4.781,10.655,10.671,10.655c5.891,0,10.656-4.78,10.656-10.655v-10.688h10.672
		c5.89,0,10.671-4.766,10.671-10.656V10.656C341.337,4.781,336.556,0,330.666,0z M74.671,351.993H53.343v-63.998h21.328
		C74.671,287.995,74.671,351.993,74.671,351.993z M117.342,351.993H95.998v-63.998h21.343L117.342,351.993L117.342,351.993z
		 M202.668,309.338h-63.999v-21.343h63.999V309.338z M138.669,330.65h63.999v21.343h-63.999L138.669,330.65L138.669,330.65z
		 M223.996,330.65v-21.312v-21.343h21.343v63.998h-21.343V330.65z M287.995,351.993h-21.328v-63.998h21.328V351.993z
		 M266.667,266.651h-21.328h-21.343h-21.328h-63.999h-21.328H95.998H74.671H31.999v85.342H21.344v-95.998H32h42.671h21.328h21.343
		h21.328h21.328h21.343h21.328h21.328h85.342h10.656v95.998h-10.656v-85.342L266.667,266.651L266.667,266.651z M53.343,96.733
		h63.999v20.609H53.343V96.733z M138.669,53.343h21.328v63.999h-21.328V96.733V74.655V53.343z M287.995,117.342h-21.328V53.343
		h21.328V117.342z M245.339,117.342h-21.343V53.343h21.343V117.342z M202.668,117.342H181.34V53.343h21.328V117.342z
		 M117.342,74.655H53.343V54.061h63.999V74.655z M117.342,138.654h21.328h21.328h21.343h21.328h21.328h21.343h21.328h42.671h10.656
		v95.998h-10.656V213.34v-21.343v-42.655h-85.342h-21.328h-21.328h-21.343H138.67h-21.328H95.998H74.671H31.999v85.311H21.344
		v-95.998H32L117.342,138.654L117.342,138.654z M74.671,234.652H53.343v-63.999h21.328
		C74.671,170.653,74.671,234.652,74.671,234.652z M117.342,234.652H95.998v-63.999h21.343L117.342,234.652L117.342,234.652z
		 M159.997,234.652h-21.328v-63.999h21.328V234.652z M287.995,191.996h-63.999v-21.343h63.999V191.996z M202.668,191.996v21.343
		v21.312H181.34v-63.999h21.328V191.996z M223.996,213.34h63.999v21.312h-63.999V213.34z M319.994,21.344v95.998h-10.656V32.734
		H31.999v41.921v22.078v20.609H21.344V21.344H319.994z M53.343,469.335v-21.344h63.999v21.344H53.343z M117.342,426.648H53.343
		v-21.312h63.999V426.648z M138.669,469.335v-21.344v-21.343v-21.312h21.328v63.998h-21.328V469.335z M181.34,469.335v-63.998
		h21.328v63.998L181.34,469.335L181.34,469.335z M223.996,469.335v-63.998h21.343v63.998L223.996,469.335L223.996,469.335z
		 M266.667,469.335v-63.998h21.328v63.998L266.667,469.335L266.667,469.335z M309.338,469.335v-85.342h-42.671h-21.328h-21.343
		h-21.328H181.34h-21.343h-21.328h-21.328H31.999v42.655v21.343v21.344H21.344v-95.998H32h42.671h21.328h21.343h21.328h63.999
		h21.328h21.343h21.328h42.671h10.656v95.998L309.338,469.335L309.338,469.335z"/>
	<path style="fill:#080808;" d="M501.335,469.335V10.656C501.335,4.781,496.554,0,490.663,0s-10.672,4.781-10.672,10.656v53.343
		h-95.998V10.656C383.993,4.781,379.227,0,373.337,0s-10.672,4.781-10.672,10.656v458.679c-5.891,0-10.672,4.766-10.672,10.656
		v21.344c0,5.875,4.781,10.655,10.672,10.655c1.938,0,3.766-0.531,5.328-1.438c1.578,0.906,3.391,1.438,5.344,1.438
		c5.891,0,10.656-4.78,10.656-10.655v-74.687h95.998v74.687c0,5.875,4.781,10.655,10.672,10.655c1.938,0,3.766-0.531,5.328-1.438
		c1.578,0.906,3.391,1.438,5.344,1.438c5.891,0,10.655-4.78,10.655-10.655v-21.344C511.99,474.1,507.225,469.335,501.335,469.335z
		 M479.991,234.652h-95.998v-63.999h95.998L479.991,234.652L479.991,234.652z M383.993,255.995h95.998v63.999h-95.998V255.995z
		 M479.991,85.342v63.999h-95.998V85.342H479.991z M383.993,405.337v-64h95.998v64H383.993z"/>
</g>
<g>
</g>
<g>
</g>
<g>
</g>
<g>
</g>
<g>
</g>
<g>
</g>
<g>
</g>
<g>
</g>
<g>
</g>
<g>
</g>
<g>
</g>
<g>
</g>
<g>
</g>
<g>
</g>
<g>
</g>
</svg>
